<svg xmlns="http://www.w3.org/2000/svg" viewBox="0 0 960 321"><path fill="#04aeef" d="m297 252-3 18c-7 4-16 5-27 5-22 0-26-11-26-22l1-9 9-45h-16l4-21h16l8-25h27l-4 25h26l-3 21h-27l-8 40-1 6c0 3 2 7 9 7zm50-116c8 0 15 7 15 16s-8 17-17 17c-10 0-15-8-15-15 0-10 8-18 17-18m8 42-14 75h16l-3 17c-3 3-12 5-23 5-16 0-20-8-20-16l1-11 14-70zm-116-45-24 122h16l-3 16c-6 2-13 5-23 5-18 0-20-13-20-18l2-17 16-85h-2l-15-2 4-19c13-2 34-2 49-2m-56 68c0 30-33 38-59 35v7c0 9 8 12 21 12 8 0 18-2 26-5v21c-7 2-21 5-38 5-16 0-41-8-41-36 0-48 35-63 57-63 19-1 34 7 34 24m-29 1c0-5-5-6-8-6-12 0-20 11-20 21 7 1 28-1 28-15m660 13c0 31-19 60-53 60-24 0-42-10-42-37 0-28 20-62 55-62 21 0 40 11 40 39m-31 1c0-8-3-15-11-15-14 0-21 25-21 38 0 7 3 13 11 13 12 0 21-22 21-36m39 33c8 0 13 6 12 13 0 9-6 14-14 14s-12-6-12-12c0-9 6-15 14-15m82-24c0 22-22 26-40 24v3c0 5 2 10 15 10l18-3v13c-5 2-14 4-25 4-13 0-30-6-30-25 0-32 25-43 39-43 13 1 23 7 23 17m-19 2c0-3-3-4-5-4-8 0-14 7-15 14 6 0 20-1 20-10m-172-13c0 39-32 62-50 62l-18-2-9 46h-24c-6 0-6-4-5-8l22-112-1-1-16-2 4-18c13-2 27-2 40-2l-5 17h1c11-15 22-18 32-18 9 0 29 6 29 38m-31 2c0-11-3-16-8-16-11 0-17 11-21 31l-3 22 6 1c17 0 26-25 26-38m-91 38 15-1-2 17c-7 3-17 5-25 5-17 0-20-8-19-19l9-45c1-4 0-8-4-8-5 0-12 5-16 12l-12 58h-24c-5 0-5-2-4-5l11-57c1-4 0-8-5-8-3 0-11 6-14 12l-11 59h-24c-4 0-6-2-5-5l13-69h-2l-14-2 4-19c13-1 26-2 40-1l-3 18c13-16 23-20 33-20s17 5 19 16c9-10 19-16 32-16 9 0 22 6 19 23zm344-24c0 7 20 16 20 27 0 12-9 19-27 19-7 0-18-3-22-6l3-14c4 3 10 5 16 5 4 0 7-2 7-5 0-8-19-14-19-28 0-12 9-20 25-20 7 0 15 2 21 8l-4 12c-4-3-9-4-12-4-5 0-8 2-8 6m-482-29c0 30-32 38-59 35v7c0 9 8 12 21 12 8 0 18-2 26-5l1 21c-8 2-21 5-39 5-16 0-41-8-41-36 0-48 36-63 58-63 19-1 33 7 33 24m-28 1c0-5-4-6-8-6-12 0-18 11-20 21 7 1 28-1 28-15m181-69c2 2 4 5 9 6l-2 2a167 167 0 0 0-193-30l-18-19-1-1a174 174 0 0 0-251 19l-11 15h-6a101 101 0 0 0-45 191v1l-12-4-4-2c-15-8-27-18-37-31l-1-2-9-14c-8-15-12-31-12-48 0-60 49-108 109-108h1a196 196 0 0 1 301-24l1 1a172 172 0 0 1 181 49"/><path fill="#ffac27" d="M580 102c-29-27-68-43-111-43h-10c-9 0-17 2-25 3a213 213 0 0 0-317 18l-3 3a120 120 0 0 0-40 229c-17-8-30-19-40-33l-2-2-9-14c-7-15-12-31-12-48 0-59 48-108 109-108h1a196 196 0 0 1 302-24v1a172 172 0 0 1 181 49c-5-11-15-22-24-31"/></svg>